<?xml version="1.0" standalone="no"?>
<!DOCTYPE svg PUBLIC "-//W3C//DTD SVG 20010904//EN"
 "http://www.w3.org/TR/2001/REC-SVG-20010904/DTD/svg10.dtd">
<svg version="1.0" xmlns="http://www.w3.org/2000/svg"
 width="260.000000pt" height="260.000000pt" viewBox="0 0 260.000000 260.000000"
 preserveAspectRatio="xMidYMid meet">
<metadata>
Created by potrace 1.11, written by Peter Selinger 2001-2013
</metadata>
<g transform="translate(0.000000,260.000000) scale(0.100000,-0.100000)"
fill="#000000" stroke="none">
<path d="M1775 2468 c9 -167 17 -282 20 -320 l3 -37 -54 31 c-30 17 -56 29
-58 27 -2 -2 -15 -26 -30 -52 -14 -26 -34 -59 -43 -73 -12 -18 -13 -28 -5 -33
7 -4 1 -25 -21 -64 l-33 -57 -37 19 c-46 23 -115 51 -142 57 -11 3 -46 10 -77
16 -32 6 -58 16 -59 22 -1 15 -1 88 0 107 1 11 13 19 35 23 40 8 121 60 131
84 20 51 13 87 -25 123 -45 44 -148 76 -235 74 -67 -3 -127 -13 -139 -25 -6
-6 -18 -10 -27 -10 -24 0 -86 -65 -92 -97 -11 -57 40 -115 125 -144 l52 -17 1
-62 c0 -34 -2 -63 -5 -65 -3 -2 -24 -6 -45 -9 -183 -24 -377 -138 -506 -296
-334 -412 -198 -1034 278 -1274 174 -87 407 -107 593 -51 287 87 506 329 570
630 17 79 20 250 6 320 -17 80 -51 177 -88 245 -40 75 -142 210 -159 210 -17
0 -9 28 23 84 19 34 39 56 49 56 10 0 20 6 22 13 3 6 6 2 6 -11 1 -20 11 -15
101 53 54 41 103 75 107 75 22 -1 131 -177 176 -285 104 -245 111 -536 20
-788 -119 -331 -405 -591 -752 -685 -86 -23 -114 -26 -271 -26 -160 0 -184 3
-275 28 -241 66 -453 209 -596 402 -24 33 -44 60 -45 62 -2 3 -196 -67 -202
-73 -5 -5 48 -90 90 -142 260 -327 639 -508 1048 -498 147 3 194 8 285 31 420
105 749 392 909 792 162 404 103 885 -153 1238 l-58 82 104 77 c57 43 101 81
96 85 -4 5 -98 40 -208 79 -110 38 -245 86 -299 105 -55 20 -104 36 -108 36
-5 0 -6 -42 -3 -92z"/>
</g>
</svg>
